<svg width="70" height="65" viewBox="0 0 70 65" fill="none" xmlns="http://www.w3.org/2000/svg">
<path d="M35.0002 63.9844C53.7306 63.9844 68.9063 49.8926 68.9063 32.5C68.9063 15.1074 53.7306 1.01562 35.0002 1.01562C16.2697 1.01562 1.09399 15.1074 1.09399 32.5C1.09399 49.8926 16.2697 63.9844 35.0002 63.9844ZM19.1408 26.9141H35.0002V17.9131C35.0002 16.5547 36.7775 15.8691 37.8029 16.834L53.4298 31.4209C54.0724 32.0176 54.0724 32.9697 53.4298 33.5664L37.8029 48.166C36.7638 49.1309 35.0002 48.4453 35.0002 47.0869V38.0859H19.1408C18.2385 38.0859 17.5002 37.4004 17.5002 36.5625V28.4375C17.5002 27.5996 18.2385 26.9141 19.1408 26.9141Z" fill="black"/>
</svg>
